<?xml version="1.0" encoding="utf-8"?>
<!-- Generator: Adobe Illustrator 27.5.0, SVG Export Plug-In . SVG Version: 6.00 Build 0)  -->
<svg version="1.1" xmlns="http://www.w3.org/2000/svg" xmlns:xlink="http://www.w3.org/1999/xlink" x="0px" y="0px"
	 viewBox="0 0 500 500" style="enable-background:new 0 0 500 500;" xml:space="preserve">
<g id="BACKGROUND">
	<rect style="fill:#FFFFFF;" width="500" height="500"/>
</g>
<g id="OBJECTS">
	<g>
		<circle style="fill:#B6BFFF;" cx="78.839" cy="347.654" r="41.185"/>
		<path style="fill:#2D2D3D;" d="M291.139,385.455c-3.173-3.032-8.804-2.749-11.221,1.023c-0.694,1.083,1.123,1.925,1.808,0.855
			c1.089-1.7,3.296-2.192,5.175-1.841c2.184,0.408,3.762,1.933,4.446,4.027c1.685,5.159-2.077,9.846-6.268,12.332
			c-9.861,5.851-22.658,5.118-33.27,2.027c-5.663-1.65-11.085-4.055-16.331-6.728c-5.051-2.574-9.906-5.543-15.072-7.888
			c-8.577-3.894-19.391-5.824-27.567,0.149c-4.021,2.937-6.99,8.103-5.628,13.176c1.44,5.364,7.295,6.832,12.147,7.185
			c1.272,0.093,1.644-1.874,0.362-1.968c-4.698-0.342-10.675-1.731-10.835-7.51c-0.143-5.148,4.046-9.307,8.51-11.149
			c10.467-4.32,21.155,1.099,30.276,6.094c10.288,5.634,21.023,11.014,32.805,12.521c5.65,0.723,11.408,0.565,16.952-0.791
			c4.961-1.213,10.271-3.411,13.555-7.498C294.102,395.591,295.05,389.192,291.139,385.455z"/>
	</g>
	<g>
		<path style="fill:#2D2D3D;" d="M113.254,355.535c-1.76,8.56-12.91,31.45-24.15,19.65c-4.64-4.87-5.5-13.19-5.86-19.57
			c-0.15-2.56-0.16-5.11-0.06-7.66c-0.55,0.93-1.11,1.85-1.68,2.77c-3.36,5.43-6.75,11.02-11.4,15.46
			c-3.52,3.37-8.5,6.53-13.55,4.66c-4.95-1.82-7.11-7.21-8.07-11.98c-2.43-12.08,0.3-26.34,7.42-36.41
			c2.92-4.13,7.17-8.15,12.44-8.72c6.1-0.67,10.82,3.47,14.69,7.62c2.61,2.79-1.22,7.42-3.86,4.6c-2.04-2.2-4.49-4.87-7.36-5.85
			c-2.33,1.01-4.52,3.46-5.74,5.1c-4.66,6.22-6.82,14.46-7.38,22.1c-0.29,3.93-0.41,8.45,0.72,12.26c0.5,1.71,1.46,3.43,3.11,4.25
			c0.22,0.11,0.44,0.19,0.67,0.26c0.27-0.16,0.55-0.32,0.84-0.52c3.66-2.5,6.41-6.71,8.82-10.34c5.31-7.99,10.18-16.35,13.45-25.39
			c0.21-0.59,0.56-1,0.99-1.28c0.16-0.39,0.52-0.7,1.06-0.65c2.2,0.25,4.47,0.65,6.55,1.44c1.6,0.61,2.53,1.91,2.34,3.64
			c-0.21,1.97-1.2,3.98-1.77,5.87c-0.6,1.96-1.15,3.95-1.62,5.94c-0.97,4.1-1.66,8.29-1.81,12.51c-0.14,4.13,0.18,8.33,1.21,12.34
			c0.31,1.21,0.63,2.89,1.49,3.99c2.22,0.7,4.43-1.27,6.09-3.25c3.38-4.05,5.46-8.78,6.52-13.92
			C108.134,350.674,114.034,351.745,113.254,355.535z"/>
		<g>
			<path style="fill:#2D2D3D;" d="M138.31,149.57c-7.74,8.68-19.15,11.32-30.4,10.8c-4.93-0.23-9.79-0.97-14.65-1.7
				c0.89,8.64,1.02,17.33,1.04,26.01c0.03,8.74,0.06,17.47,0.43,26.2c0.38,8.76,0.95,17.5,1.52,26.24
				c1.1,17.08,2.19,34.15,3.29,51.23c8.84,1.06,17.44,1.07,24.88-4.14c3.17-2.22,6.63,2.69,3.46,4.9
				c-17.49,12.25-38.16-0.62-57.12,3.58c-3.76,0.84-4.24-5.15-0.52-5.97c2.45-0.55,4.98-0.76,7.55-0.77
				c0.54-9.11,1.08-18.22,1.61-27.33c1.01-17.26,1.99-34.53,2.95-51.8c0.92-16.44,1.81-32.88,2.69-49.32
				c-3.42-0.42-6.85-0.71-10.29-0.61c-1.67,0.06-10.46,0.33-10.53,1.92c-0.17,3.81-6.15,4.37-5.98,0.52
				c0.54-12.11,23.25-8.47,31.41-7.27c0.9-0.24,1.86-0.12,2.54,0.38c14.08,2.11,30.95,5.13,41.52-6.73
				C136.28,142.83,140.89,146.68,138.31,149.57z"/>
			<path style="fill:#2D2D3D;" d="M141.39,239.06c2.11-3.88,3.68-8.08,4.74-12.42c1.55-0.08,3.1-0.3,4.62-0.66
				c9.57-2.25,16.82-9.8,20.21-18.82c1.35-3.6-4.07-6.18-5.43-2.57c-2.83,7.55-8.6,14.05-16.78,15.75c-0.49,0.1-0.98,0.18-1.47,0.24
				c0.4-2.96,0.57-5.94,0.53-8.89c-0.1-7.79-1.44-17.95-9.11-22.04c-7.11-3.79-14.33,0.49-16.93,7.55
				c-2.65,7.22-0.46,15.67,4.44,21.4c2.41,2.82,5.45,4.88,8.78,6.22c-1.11,3.29-2.51,6.49-4.14,9.55c-2.32,4.36-5.7,9.21-11.07,9.74
				c-5.87,0.57-9.25-4.93-11.06-9.76c-3.73-11.87,1.16-26.3,9.18-35.09c2.6-2.86-2-6.71-4.6-3.86
				c-11.21,12.29-15.98,32.44-7.23,47.44c3.79,6.49,10.51,11.4,18.33,10.27C132.11,252,137.85,245.56,141.39,239.06z M128.37,211.09
				c-1.15-2.33-1.82-5.07-1.74-7.74c0.78-1.73,1.87-3.68,3.78-4.16c2.68-0.69,4.73,1.89,5.63,4.05c2.08,4.96,1.72,10.59,0.58,15.74
				C133.14,217.38,130.16,214.73,128.37,211.09z"/>
		</g>
		<g>
			<path style="fill:#2D2D3D;" d="M426.61,223.24c-2.36,5.94-5.89,11.31-10.85,15.41c-1.36,1.12-2.93,2.24-4.62,3.21
				c-0.41-6.52-2.3-12.95-5.84-18.46c-3.16-4.91-9.04-9.91-14.96-6.01c-10.34,6.81-6.6,25.25,2.83,30.94
				c2.62,1.58,5.3,2.37,7.96,2.55c-0.12,2.52-0.44,5.04-1.03,7.47c-0.93,3.89-2.95,8.5-6.84,10.22
				c-2.769,1.23-5.695,0.679-7.844-0.976c-2.131-3.268-3.555-6.959-4.057-10.839c-0.251-1.946-0.299-3.92-0.287-5.88
				c0.013-2.266,0.418-4.365,0.834-6.579c0.266-1.416,0.729-3.569-0.369-4.756c-1.04-1.124-2.725-0.662-3.825,0.1
				c-2.343,1.623-3.399,5.089-3.434,8.067c-1.228,4.947-2.651,9.837-4.389,14.634c-1.57,4.31-3.15,10.37-6,14.06
				c-4.35,5.61-7.51-7.19-8.26-10.5c-1.19-5.22-1.57-10.6-1.59-15.94c-0.07-12.45,1.18-24.97,2.82-37.44
				c0.88,0.45,1.71,0.88,2.47,1.24c7.6,3.62,16.03,6.79,24.35,3.79c3.63-1.31,1.55-6.94-2.09-5.62c-7.03,2.53-15.46-1.6-23.89-5.63
				c1.06-7.54,2.21-15.05,3.24-22.5c0.13-0.94-0.13-1.71-0.6-2.28c-0.04-0.4-0.27-0.78-0.75-0.92c-3.06-0.91-6.85-1.64-9.34,0.93
				c-2.44,2.52-2.48,7.03-2.94,10.28c-0.45,3.21-0.8,6.43-1.11,9.66c-7.01-2.16-13.53-1.91-18.64,5.14
				c-2.26,3.11,2.32,6.99,4.59,3.86c3.29-4.53,8.38-4.49,13.54-2.91c-0.25,3.52-0.45,7.05-0.58,10.58c-0.08,2.6-0.13,5.19-0.16,7.79
				c-7.3,2.57-14.13,6.25-20.26,10.93c-2.69-4.41-5.7-8.64-8.58-12.94c3.33-10.51,4.78-22.23,2.02-32.18
				c-1.42-5.13-6.14-11.88-12.33-9.07c-2,0.91-3.49,2.57-4.57,4.55c-2.54,2.97-4.22,6.81-5.12,10.49
				c-1.86,7.61-0.59,15.67,3.31,22.43c2.19,3.8,4.95,7.22,7.74,10.62c-2.97,6.79-7.02,13.1-12.17,18.24
				c-3.34,3.34-7.3,5.79-11.38,7.08c-1.96,0.19-3.97,0-5.9-0.56c-4.91-1.43-8.85-5.26-11.31-9.64c-2.26-4.02-3.26-8.63-3.13-13.22
				c10.98-0.62,23.46-4.36,26.96-15.63c1.66-5.37-0.22-11.39-5.84-13.35c-5.51-1.92-11.6,0.95-15.99,4.18
				c-10.45,7.67-17.93,20.91-15.22,34.12c2.53,12.33,13.65,22.77,26.71,21.43c14.59-1.49,25.1-14.94,31.21-27.12
				c0.07-0.12,0.12-0.25,0.19-0.38c0.92,1.21,1.83,2.44,2.68,3.7c0.94,1.41,1.84,2.86,2.69,4.35c-7.08,7.15-15.24,17.64-12.04,28.05
				c3.15,10.23,14.67,11.59,22.1,4.99c9.25-8.21,6.88-22.28,2.25-32.27c-0.41-0.89-0.85-1.77-1.3-2.64
				c5.28-4.13,11.09-7.35,17.28-9.74c0.03,4.23,0.13,8.46,0.3,12.68c0.33,8.33,1.01,16.79,3.8,24.7c1.4,3.97,3.32,7.79,5.88,11.13
				c2.01,2.64,5.55,6.32,9.04,3.66c0.11-0.09,0.19-0.18,0.25-0.29c0.69-0.35,1.39-0.82,2.13-1.46c4.16-3.61,6.08-10.3,7.99-15.26
				c0.63-1.63,1.22-3.27,1.79-4.92c2.18,7.79,6.99,14.23,16.54,14.41c13.02,0.25,17.54-16.43,18.41-28.1
				c9.5-4.34,17.64-14.75,20.96-23.1C433.46,222.22,428.04,219.64,426.61,223.24z M401,244.69c-0.14-0.01-0.28-0.02-0.42-0.04
				c-0.21-0.02-0.42-0.05-0.64-0.09c0,0,0,0-0.01,0c-0.21-0.04-0.42-0.08-0.63-0.13c-0.14-0.03-0.28-0.07-0.42-0.11
				c-0.14-0.03-0.27-0.07-0.4-0.11c-0.56-0.18-1.12-0.41-1.67-0.7c-4.86-2.54-6.91-8.62-6.43-13.82c0.01-0.12,0.02-0.24,0.04-0.37
				l0.01-0.01c0.75-1.53,1.9-2.69,3.84-1.62c1.84,1.03,2.93,3.48,3.77,5.31c1.7,3.68,2.62,7.65,2.96,11.68V244.69z M268.08,217.85
				c2.58-3.65,6.14-6.64,10.25-8.36c3.32-0.76,6.94-0.23,6.51,4.37c-0.35,3.89-3.73,7.03-6.85,8.94c-4.17,2.54-9.02,3.55-13.9,3.86
				C264.88,223.51,266.21,220.5,268.08,217.85z M312.48,212.16c-0.23,1.56-0.51,3.12-0.85,4.68c-1.67-2.86-3.19-5.8-4.43-8.89
				c-1.04-2.6-1.87-5.3-2.19-8.08c-0.28-2.4-0.61-8.08,1.6-9.79C314.53,183.92,312.89,209.38,312.48,212.16z M318.35,273.08
				c-1.59,1.12-3.68,1.48-5.49,1.02c-0.26-0.17-0.49-0.37-0.71-0.6c-0.11-0.1-0.22-0.22-0.31-0.34c-0.11-0.12-0.2-0.24-0.28-0.36
				c-0.09-0.13-0.18-0.25-0.26-0.38c-0.09-0.13-0.17-0.26-0.24-0.4v-0.01c-0.08-0.14-0.15-0.28-0.2-0.42
				c-0.07-0.14-0.13-0.28-0.18-0.43c-0.06-0.15-0.11-0.3-0.16-0.45c-0.05-0.13-0.09-0.26-0.12-0.4c-0.05-0.18-0.09-0.36-0.13-0.54
				c-0.07-0.32-0.13-0.65-0.16-0.98c-0.02-0.14-0.04-0.28-0.04-0.42c-0.07-0.81-0.06-1.63,0.02-2.43c0.06-0.62,0.16-1.24,0.29-1.83
				c0.05-0.21,0.1-0.41,0.15-0.6c0.11-0.4,0.23-0.78,0.37-1.14c0.13-0.35,0.27-0.7,0.42-1.04c0.35-0.84,0.76-1.67,1.2-2.49
				c0.17-0.31,0.34-0.63,0.53-0.94c0.19-0.33,0.39-0.67,0.6-1c0.03-0.05,0.06-0.1,0.09-0.15c0.67-1.05,1.4-2.09,2.18-3.1
				c0.26-0.35,0.52-0.68,0.8-1.02c0.87-1.07,1.78-2.11,2.73-3.11c1.65,3.83,2.79,7.85,3.11,12.02
				C322.89,265.75,322.03,270.48,318.35,273.08z"/>
			<path style="fill:#2D2D3D;" d="M177.17,221.72c-2.61-17.54-3.54-35.33-2.78-53.05c0.04-0.97,1.19-1.3,1.73-0.85
				c3.82-0.61,7.68-0.75,11.54-0.43c0.54,0.04,0.89,0.67,0.81,1.16c-0.01,0.07-0.04,0.14-0.06,0.21c0.39,0.54,0.59,1.22,0.52,2.03
				c-2.66,29.88-0.63,59.97,5.9,89.13c-0.62-8.61-0.88-17.25-0.76-25.89c0.25-18.67,1.33-38.12,5.81-56.3
				c3.02-12.23,10.81-34.77,27.41-31.97c15.3,2.59,14.6,24.07,12.22,35.27c-3.28,15.43-11.05,30.07-19.38,43.59
				c5.73-0.29,11.53,2.14,15.8,6.36c7.98,7.9,8.83,19.99,9.16,30.57c0.4,12.93,1.32,27.59,14.58,33.91
				c11.27,5.38,26.06-1.9,25.81-15.22c-0.07-3.85,5.9-4.38,5.98-0.52c0.16,8.77-4.77,16.84-12.3,20.91
				c-2.08,1.44-4.38,2.57-6.82,3.3c-8.2,2.47-17.26,0.69-24.31-4.04c-6.88-4.62-11.77-11.96-14.05-19.87
				c-2.83-9.78-2.57-20.15-2.72-30.22c-0.07-4.68-0.55-9.65-3.29-13.61c-2.4-3.46-6.79-5.72-10.96-4.2
				c-0.44,0.16-0.82,0.01-1.05-0.26c-0.29,0.14-0.56,0.3-0.84,0.48c-2.27,1.46-6.18-1-4.44-3.73c2.62-4.11,5.27-8.33,7.8-12.67
				c0.63-1.7,1.23-3.4,1.8-5.12c3.72-11.09,6.82-22.71,8.09-34.37c0.64-5.85,0.66-11.94-0.83-17.67c-0.63-2.44-1.61-4.99-3.58-6.67
				c-0.01-0.01-0.01-0.01-0.02-0.02c-3.07,0.31-6.23,2.16-8.64,5.18c-9.76,12.26-11.61,29.92-13.27,44.95
				c-3.6,32.47-2.42,65.41,4.53,97.36c0.74,3.41-4.66,4.36-5.8,1.31c-0.45-1.2-0.89-2.4-1.33-3.6c-3.57-7.85-6.79-15.87-9.63-24.02
				C183.99,256.45,179.76,239.2,177.17,221.72z"/>
		</g>
		<path style="fill:#2D2D3D;" d="M331.16,360.89c-1.88,3.39-4.67,8.59-9.21,8.63c-1.41-0.44-2.3-1.73-3.04-3.2
			c-1.89-3.77-2.9-7.92-3.21-12.11c-0.33-4.39,0.12-8.8,1-13.1c0.45-2.25,1.04-4.46,1.67-6.67c0.43-1.53,0.83-3.18,0.47-4.77
			c-0.94-4.13-6.65-4.28-10.07-3.45c-1.06,0.15-1.98,0.89-2.13,2.36c-1.34,12.96-4.7,35.82-21.72,37.16
			c-0.94,0.07-1.77,0.05-2.53-0.04c-0.8-0.49-1.46-1.27-1.88-2.13c-0.94-1.94-1.05-4.23-0.75-6.33c0.6-4.04,2.58-7.88,4.73-11.3
			c2.03-3.23,4.49-6.2,7.26-8.82c1.46-1.37,3.01-2.64,4.64-3.81c1.43-1.02,3.07-1.87,4.26-3.19c2.32-2.56,1.54-5.69,0.07-8.41
			c-0.14-0.89-0.63-1.71-1.36-2.18c-0.12-0.17-0.23-0.33-0.35-0.49c-0.52-0.72-1.45-0.39-1.73,0.23c-0.14,0.04-0.28,0.07-0.42,0.13
			c-2.99,1.31-5.76,2.95-8.3,4.91c-0.89,0.46-1.77,0.94-2.65,1.42c-0.37,0-20.6,14.83-27.45,24.11c-0.83-1.61-1.68-3.2-2.59-4.76
			c-1.8-3.09-3.77-6.07-5.81-9c1.06-6.5,1.33-13.19-0.09-19.4c-1.14-5.02-7.36-18.43-14.18-11.25c-1.51,1.59-2.37,3.49-2.74,5.54
			c-0.89,1.8-1.51,3.75-1.83,5.74c-0.95,5.81,0.65,11.68,3.29,16.84c2.08,4.06,4.74,7.73,7.5,11.34
			c-2.04,7.95-5.3,15.73-10.95,21.54c-2.34,2.41-5.1,3.86-7.7,4.11c-0.37-0.09-0.73-0.21-1.07-0.38c-1.67-0.82-2.75-2.51-3.42-4.19
			c-1.58-3.99-1.52-8.54-0.91-12.72c0.31-2.18,0.79-4.33,1.35-6.46c0.28-1.06,0.57-2.12,0.88-3.18c0.24-0.85,0.6-1.75,0.4-2.65
			c-0.39-1.75-2.3-1.85-3.77-1.92c-2.02-0.09-3.99,0.14-5.95,0.62c-0.37,0.08-0.55,0.31-0.62,0.58c-0.56,0.38-1.03,0.96-1.27,1.79
			c-2.37,8.34-6.48,16.06-12.2,22.59c-2.26,2.58-4.89,5.46-7.92,7.44c-1.87,0.75-3.85,0.7-5.72-1.05
			c-3.38-3.16-3.62-8.51-2.88-12.77c1.19-6.89,4.68-13.39,9.39-18.58c3.342-2.631,7.009-4.816,10.699-6.451
			c2.212-0.584,4.503-0.847,6.818-0.692c1.179,0.079,2.499,0.405,3.615-0.143c1.156-0.568,1.564-1.755,1.327-2.965
			c-0.459-2.346-2.43-4.581-4.905-4.612c-0.392-0.005-1.243,0.164-2.147,0.46c-0.148,0.019-0.294,0.032-0.447,0.073
			c-10.4,2.75-19.76,8.91-26.32,17.46c-3.47,4.52-6.97,10.6-8.35,16.79c-3.78,5.55-9.89,12.97-16.09,16.58
			c-1.76,0.76-3.65,1.06-5.6,0.42c-4.08-1.34-6.21-5.43-7.33-9.28c-2.63-8.96-2.7-18.74-1.79-27.97c0.89-8.85,2.69-17.65,5.6-26.06
			c2.79-8.09,6.56-16.12,11.77-22.95c2.67-3.5,5.82-6.67,9.65-8.89c2.51-1.46,6.18-2.85,9.11-2.12c3.4,2.14,5.72,6.23,7.04,10.48
			c1.15,3.69,6.77,1.59,5.63-2.09c-2.62-8.41-8.42-14.46-15.7-15.57c-7.2-1.76-15.52,0.33-21.67,4.11
			c-9.92,6.1-15.79,16.83-19.98,27.34c-4.72,11.87-8.14,24.43-8.4,37.26c-0.23,11.8,2.26,24.55,9.02,34.43
			c3.27,4.77,8.03,8.8,14.04,9.04c6.75,0.93,12.98-3.72,17.83-7.91c2.47-2.13,4.74-4.44,6.85-6.88c0.37,1.42,0.92,2.79,1.7,4.11
			c6.22,10.49,17.6,6.48,24.97-0.28c4.52-4.14,8.3-8.87,11.38-14.04c0.46,4.94,1.79,9.65,4.63,13.16c5.6,6.9,15.47,4.7,21.33-0.51
			c6.16-5.48,10.01-13.34,12.55-21.18c2.11,2.88,4.03,5.86,5.65,8.99c-3.78,6.87-8.43,16.17-7.12,24.07
			c1.16,6.95,8.34,12.37,15.26,9.32c7.81-3.44,6.8-14.59,5.72-21.4c-0.86-5.43-2.48-10.65-4.6-15.68c1.16-1.74,2.38-3.44,3.68-5.09
			c3.82-4.8,8.19-9.13,12.99-12.91c-2.94,4.4-5.42,9.07-6.89,14.13c-2.36,8.12,0.07,17.49,9.38,19.29
			c8.66,1.67,17.16-3.69,22.25-10.34c2.04-2.68,3.62-5.57,4.87-8.59c0.87,5.75,1.85,12.37,4.77,17.34
			c2.57,4.36,7.12,6.52,12.13,5.22c5.92-1.53,9.22-6.65,12.02-11.68C338.47,360.07,333.03,357.53,331.16,360.89z M244.75,328.69
			c-2.52-3.58-4.83-7.42-5.47-11.77c-0.29-1.99-0.81-7.31,2.24-5.42c1.7,1.06,2.63,6.14,2.94,8.04
			C244.96,322.57,244.98,325.64,244.75,328.69z M257.1,379.3c-0.15,2.73-0.71,6.52-3.62,7.64c-1.01-0.67-1.86-1.7-2.32-3.07
			c-1.69-5.05,1.64-11.96,4.04-16.85c0.06,0.19,0.13,0.37,0.19,0.56C256.58,371.35,257.32,375.33,257.1,379.3z"/>
	</g>
	<g>
		<path style="fill:#B6BFFF;" d="M444.08,136.23c-4.06,3.62-9.65,5.18-14.67,6.96c-4.83,1.71-9.73,3.26-14.78,4.15
			c-5.19,0.92-10.4,0.92-15.61,0.24c-5.1-0.66-10.21-1.73-15.17-3.07c-4.27-1.16-8.4-2.72-12.16-5.07c-0.02,0-0.04,0.01-0.05,0.01
			c-0.71,0.08-1.06-0.48-1.04-1.03c-0.09-0.65,0.7-1.34,1.47-1.03c5.11-0.58,10.23-1.09,15.36-1.52c18.63-1.54,37.3-1.94,55.99-1.45
			C444.44,134.44,444.85,135.55,444.08,136.23z"/>
		<path style="fill:#2D2D3D;" d="M458.24,246.05c8.57-1.83,18.48-3.33,24.02-10.91c1.06-1.45,2.08-3.19,1.93-5.05
			c-0.14-1.85-1.59-3.02-3.38-3.2c-4.38-0.42-8.89,2.45-12.25,4.94c-3.28,2.43-6.15,5.34-8.59,8.6c0.42-1.56,0.8-3.14,1.11-4.73
			c0.08-0.08,0.15-0.16,0.21-0.28c2.45-4.91,4.12-10.21,4.89-15.65c0.65-4.56,1.22-10.07-0.91-14.34c-0.96-1.92-2.63-3.68-4.78-4.2
			c-2.11-0.51-4.23,0.5-5.47,2.22c-2.9,4.02-1.28,10.22-0.02,14.55c1.64,5.68,4.09,11.24,3.87,17.26c-0.01,0.23,0.06,0.39,0.16,0.53
			c-0.24,1.16-0.51,2.31-0.81,3.45c-0.47-2.9-1.25-5.76-2.33-8.49c-1.59-4.01-3.79-8.46-7.32-11.11c-1.68-1.26-3.87-2.24-5.96-1.38
			c-1.8,0.73-2.92,2.56-3.19,4.43c-0.62,4.3,1.96,8.37,4.73,11.4c3.74,4.09,8.05,7.71,12.13,11.46c-1.17,3.25-2.59,6.41-4.22,9.46
			c-0.16-3.28-0.9-6.53-2.24-9.56c-1.69-3.83-4.33-7.74-7.99-9.93c-1.66-0.99-3.81-1.69-5.73-1c-1.71,0.61-2.66,2.23-2.78,3.99
			c-0.28,3.98,2.61,7.76,5.25,10.44c3.47,3.5,7.75,6.04,11.4,9.34c-0.01,0.12-0.01,0.25,0.02,0.36c-2.61,4.28-5.67,8.27-9.13,11.9
			c1.02-8.59-1.24-17.56-7.7-23.65c-1.34-1.26-3.14-2.86-5.12-2.13c-1.7,0.62-2.5,2.56-2.69,4.23c-0.54,4.65,2.05,8.96,4.93,12.38
			c2.93,3.47,6.52,6.59,8.32,10.79c-0.05,0.25-0.08,0.51-0.13,0.76c-1.03,0.98-2.07,1.94-3.16,2.85c-3.78,3.16-8.02,6.41-12.98,7.27
			c-1.26,0.22-1.1,2.21,0.17,1.99c2.47-0.43,4.74-1.37,6.88-2.58c0.03,0.01,0.05,0.03,0.07,0.04c7.28,2.07,14.9,7.43,22.79,5.63
			c1.43-0.33,2.94-0.91,3.41-2.44c0.48-1.55-0.25-3.1-1.41-4.13c-2.75-2.45-7.19-2.99-10.7-3.23c-2.79-0.19-5.82-0.18-8.68,0.37
			c1.67-1.32,3.28-2.71,4.82-4.16c0.37,0.18,0.86,0.05,1.17-0.27c5.02,0.66,10.05,1.28,15.12,1.48c4.56,0.18,10.44,0.36,14.17-2.76
			c1.39-1.17,2.39-2.87,1.96-4.72c-0.41-1.82-2-2.99-3.68-3.59c-4.55-1.63-9.99-0.52-14.5,0.73c-3.1,0.87-6.1,2.07-8.95,3.56
			c2.56-3,4.88-6.2,6.93-9.58c4.63,0.47,9.29,0.88,13.94,0.61c2.43-0.14,4.83-0.48,7.18-1.08c2.23-0.56,4.65-1.29,6.4-2.83
			c1.42-1.25,2.35-3.17,1.97-5.07c-0.36-1.8-1.83-3.06-3.47-3.71c-4.28-1.71-9.38-0.42-13.42,1.35c-3.63,1.59-6.91,3.81-10.06,6.19
			c1.1-2.14,2.1-4.32,2.98-6.56C457.72,247.55,457.98,246.8,458.24,246.05z M467.46,235.26c2.88-2.47,6.22-4.86,9.91-5.94
			c1.3-0.38,4.64-1.22,4.83,0.95c0.14,1.64-1.18,3.3-2.17,4.48c-2.28,2.7-5.4,4.59-8.66,5.88c-3.61,1.43-7.42,2.21-11.22,2.99
			C462.18,240.52,464.64,237.68,467.46,235.26z M455.5,209.33c-0.03-2.26,0.47-5.24,2.94-6.09c2.14-0.74,4.13,1.28,5.01,3.01
			c1.9,3.75,1.36,8.7,0.83,12.71c-0.59,4.44-1.8,8.76-3.55,12.87C459.9,224.16,455.59,217.14,455.5,209.33z M443.65,280.33
			c2.11,0.18,4.3,0.48,6.32,1.17c1.23,0.41,5.05,2.08,3.6,3.94c-0.58,0.73-2.19,0.86-3,0.95c-1.14,0.12-2.28,0.06-3.4-0.09
			c-2.07-0.27-4.08-0.85-6.04-1.55c-2.9-1.05-5.72-2.32-8.62-3.35C436,280.16,440.04,280.03,443.65,280.33z M439.04,268.77
			c-3.25-5.09-8.67-8.8-10.95-14.55c-0.71-1.81-1.16-4-0.58-5.91c0.21-0.7,0.71-1.7,1.56-1.73c0.98-0.03,2.01,1.12,2.66,1.72
			c2.82,2.61,4.87,5.99,6.09,9.62C438.99,261.42,439.32,265.12,439.04,268.77z M451.1,268.42c4.05-1.49,8.48-2.62,12.82-2.48
			c1.81,0.05,4.07,0.27,5.48,1.55c1.6,1.45,0.46,3.3-1,4.31c-3.47,2.39-8.59,2.12-12.61,1.96c-4.35-0.18-8.69-0.69-13.01-1.25
			C445.4,270.87,448.18,269.49,451.1,268.42z M435.95,241.81c-0.56-1.32-1.08-3.16-0.27-4.5c1.03-1.72,3.4-1.01,4.82-0.25
			c3.21,1.72,5.61,5.2,7.14,8.42c1.53,3.21,2.37,6.72,2.46,10.27C444.98,251.52,438.58,248.1,435.95,241.81z M473.53,248.54
			c1.75,0.01,3.92,0.29,5.21,1.62c1.58,1.63,0.31,3.85-1.27,4.91c-1.63,1.1-3.7,1.64-5.58,2.09c-2.11,0.49-4.28,0.74-6.45,0.86
			c-3.78,0.2-7.55-0.06-11.32-0.41C459.74,253.2,466.23,248.51,473.53,248.54z M448.16,235.3c-2.61-2.46-5.27-5.2-6.38-8.71
			c-0.57-1.81-0.81-4.18,0.55-5.72c1.65-1.86,4.05-0.51,5.58,0.81c2.88,2.49,4.72,6.28,6.1,9.77c1.49,3.76,2.37,7.71,2.66,11.74
			C453.82,240.57,450.97,237.96,448.16,235.3z"/>
		<path style="fill:#2D2D3D;" d="M477.47,255.07c-1.63,1.1-3.7,1.64-5.58,2.09c-2.11,0.49-4.28,0.74-6.45,0.86
			c-3.78,0.2-7.55-0.06-11.32-0.41c5.62-4.41,12.11-9.1,19.41-9.07c1.75,0.01,3.92,0.29,5.21,1.62
			C480.32,251.79,479.05,254.01,477.47,255.07z"/>
		<path style="fill:#2D2D3D;" d="M482.2,230.27c0.14,1.64-1.18,3.3-2.17,4.48c-2.28,2.7-5.4,4.59-8.66,5.88
			c-3.61,1.43-7.42,2.21-11.22,2.99c2.03-3.1,4.49-5.94,7.31-8.36c2.88-2.47,6.22-4.86,9.91-5.94
			C478.67,228.94,482.01,228.1,482.2,230.27z"/>
		<path style="fill:#2D2D3D;" d="M450.1,255.75c-5.12-4.23-11.52-7.65-14.15-13.94c-0.56-1.32-1.08-3.16-0.27-4.5
			c1.03-1.72,3.4-1.01,4.82-0.25c3.21,1.72,5.61,5.2,7.14,8.42C449.17,248.69,450.01,252.2,450.1,255.75z"/>
		<path style="fill:#2D2D3D;" d="M439.04,268.77c-3.25-5.09-8.67-8.8-10.95-14.55c-0.71-1.81-1.16-4-0.58-5.91
			c0.21-0.7,0.71-1.7,1.56-1.73c0.98-0.03,2.01,1.12,2.66,1.72c2.82,2.61,4.87,5.99,6.09,9.62
			C438.99,261.42,439.32,265.12,439.04,268.77z"/>
		<path style="fill:#2D2D3D;" d="M391.179,209.795c-12.276-15.41-17.754-34.84-19.761-54.162c-0.612-5.89-0.924-11.806-1.072-17.724
			c-0.032-1.287-2.025-1.108-1.992,0.174c0.508,20.255,3.101,41.017,12.468,59.266c2.467,4.807,5.357,9.375,8.725,13.602
			C390.345,211.953,391.984,210.805,391.179,209.795z"/>
		<path style="fill:#2D2D3D;" d="M473.686,140.88c-2.642-5.499-8.172-8.758-14.25-7.171c-5.659,1.477-9.193,6.042-11.308,11.189
			c-0.323-3.447-0.769-6.883-1.369-10.295c-0.031-0.174-0.1-0.314-0.187-0.434c-0.104-0.438-0.44-0.843-1.002-0.866
			c-0.083-0.003-0.166-0.005-0.249-0.008c-0.006,0-0.012-0.001-0.018-0.001c-19.762-0.79-39.569-0.308-59.266,1.476
			c-5.559,0.503-11.108,1.112-16.645,1.818c-0.313,0.04-0.536,0.192-0.68,0.393c-0.661,0.266-1.055,1.129-0.315,1.62
			c4.459,2.953,8.949,5.773,14.157,7.195c5.528,1.509,11.42,2.12,17.126,2.477c10.767,0.672,21.758-0.34,31.831-4.4
			c4.848-1.954,9.408-4.59,13.442-7.913c3.204,19.295,1.92,39.23-3.734,57.959c-1.611,5.335-3.599,10.549-5.902,15.623
			c-0.048,0.008-0.09-0.001-0.14,0.014c-14.356,4.414-29.803,4.58-44.267,0.555c-1.241-0.345-1.592,1.625-0.362,1.968
			c14.807,4.12,30.641,3.867,45.326-0.648c0.108-0.033,0.184-0.09,0.263-0.144c0.331-0.001,0.656-0.151,0.836-0.545
			c3.434-7.507,6.118-15.339,8.055-23.35c0.175,0.06,0.364,0.092,0.578,0.044c13.343-3.01,22.919-14.182,27.28-26.701
			C475.058,154.501,476.686,147.124,473.686,140.88z M385.913,144.526c-2.97-0.593-5.825-1.479-8.542-2.828
			c-1.994-0.99-3.891-2.153-5.758-3.362c19.035-2.339,38.211-3.498,57.39-3.419c4.569,0.019,9.137,0.127,13.703,0.284
			C426.879,147.473,404.921,148.321,385.913,144.526z M448.585,161.762c4.056-1.18,5.458-5.578,6.646-9.188
			c0.697-2.12,1.545-4.36,3.452-5.686c1.986-1.382,4.282-0.979,5.616,1.049c1.314,1.998,1.108,4.605,0.759,6.857
			c-0.299,1.933-0.802,3.835-1.506,5.66c-1.446,3.747-3.643,7.162-6.42,10.06c-2.837,2.96-6.28,5.279-10.075,6.805
			C447.88,172.171,448.383,166.974,448.585,161.762z M470.795,160.671c-2.04,5.568-5.029,10.81-9.108,15.139
			c-4.379,4.648-9.978,8.058-16.184,9.589c0.432-1.918,0.805-3.849,1.15-5.784c8.391-2.977,15.275-9.712,18.574-17.972
			c1.581-3.958,3.127-9.424,1.402-13.554c-0.793-1.899-2.399-3.568-4.475-3.976c-2.27-0.447-4.463,0.718-5.98,2.337
			c-3.29,3.51-2.843,11.022-7.518,13.155c0.057-2.587,0.046-5.177-0.053-7.765c-0.022-0.563-0.065-1.125-0.094-1.687
			c1.416-5.742,4.281-11.805,10.14-14.088c2.62-1.021,5.541-1.124,8.095,0.149c2.353,1.172,4.149,3.325,5.22,5.695
			C474.644,147.836,472.928,154.849,470.795,160.671z"/>
		<path style="fill:#2D2D3D;" d="M379.588,168.22c-0.639-2.454-1.022-4.968-1.177-7.498c-0.079-1.286-2.071-1.11-1.992,0.174
			c0.166,2.712,0.61,5.393,1.295,8.021c0.136,0.523,0.817,0.763,1.286,0.589C379.548,169.303,379.724,168.745,379.588,168.22z"/>
		<path style="fill:#2D2D3D;" d="M383.313,181.809c-1.066-2.337-1.891-4.773-2.465-7.277c-0.121-0.527-0.828-0.759-1.286-0.589
			c-0.561,0.208-0.71,0.758-0.589,1.286c0.574,2.503,1.399,4.94,2.465,7.277c0.224,0.491,0.754,0.786,1.286,0.589
			C383.204,182.918,383.538,182.303,383.313,181.809z"/>
		<path style="fill:#2D2D3D;" d="M385.79,175.105c-0.785-2.053-1.248-4.046-1.446-6.227c-0.047-0.521-0.546-0.98-1.083-0.909
			c-0.536,0.071-0.96,0.525-0.909,1.083c0.209,2.306,0.736,4.588,1.564,6.751c0.193,0.504,0.777,0.778,1.286,0.589
			C385.706,176.204,385.984,175.611,385.79,175.105z"/>
		<path style="fill:#2D2D3D;" d="M427.636,92.895c-5.837-2.26-13.308-0.832-18.523,2.383c-5.283,3.257-8.744,9.657-7.22,15.763
			c-1.668-0.23-3.415,0.237-4.804,1.245c-2.196,1.595-3.117,4.303-3.099,6.936c0.036,5.365,3.901,10.244,8.79,12.153
			c0.85,0.332,1.515-0.484,1.405-1.152c0.014-0.084,0.038-0.163,0.029-0.26c-0.639-7.111,6.152-11.717,11.898-14.1
			c5.654-2.345,13.127-3.841,16.787-9.248C436.419,101.413,433.075,95.001,427.636,92.895z M428.399,108.276
			c-5.019,3.553-11.419,4.597-16.792,7.508c-4.866,2.636-9.31,7.354-9.424,13.099c-3.098-1.698-5.48-4.695-6.064-8.241
			c-0.351-2.128-0.053-4.614,1.531-6.215c1.413-1.428,3.598-1.923,5.381-0.932c0.752,0.418,1.704-0.471,1.365-1.253
			c-2.433-5.616,0.534-11.8,5.371-15.007c4.816-3.193,12.398-4.756,17.793-2.199c2.44,1.156,4.505,3.462,4.818,6.22
			C432.715,104.238,430.688,106.655,428.399,108.276z"/>
		<path style="fill:#2D2D3D;" d="M438.009,185.202c-0.596,0.079-0.884,0.521-0.909,1.083c-0.078,1.729-0.156,3.458-0.233,5.187
			c-0.024,0.525,0.596,0.974,1.083,0.909c0.596-0.079,0.884-0.521,0.909-1.083c0.078-1.729,0.155-3.458,0.233-5.187
			C439.116,185.587,438.496,185.138,438.009,185.202z"/>
		<path style="fill:#2D2D3D;" d="M436.745,195.405c-0.518-0.071-1.087,0.249-1.165,0.803c-0.108,0.773-0.252,1.54-0.435,2.298
			c-0.09,0.372-0.189,0.742-0.297,1.109c-0.049,0.167-0.1,0.334-0.153,0.5c-0.014,0.042-0.038,0.116-0.046,0.138
			c-0.038,0.112-0.076,0.223-0.115,0.334c-0.173,0.492-0.056,1.107,0.477,1.332c0.456,0.192,1.146,0.05,1.332-0.477
			c0.557-1.584,0.972-3.209,1.206-4.872C437.62,196.052,437.295,195.48,436.745,195.405z"/>
		<path style="fill:#2D2D3D;" d="M432.056,189.648c-0.57,0.076-0.918,0.522-0.909,1.083c0.004,0.248,0.004,0.497-0.004,0.745
			c0-0.003-0.014,0.322-0.005,0.157c-0.006,0.106-0.013,0.212-0.021,0.319c-0.036,0.478-0.094,0.953-0.172,1.426
			c-0.076,0.455-0.171,0.906-0.286,1.353c-0.057,0.223-0.119,0.445-0.186,0.666c0,0-0.053,0.164-0.061,0.192
			c-0.041,0.123-0.084,0.246-0.128,0.368c-0.177,0.491-0.054,1.108,0.477,1.332c0.46,0.194,1.143,0.049,1.332-0.477
			c0.726-2.018,1.081-4.11,1.048-6.255C433.131,190.033,432.565,189.581,432.056,189.648z"/>
		<g>
			<path style="fill:#B6BFFF;" d="M342.93,330.74c-0.02-0.28,0.08-0.57,0.27-0.79c0-0.01,0-0.02,0-0.02
				c0.27-0.58,0.84-0.66,1.29-0.46c1.8-0.31,3.62-0.5,5.46-0.59c8.6-0.42,17.29-0.07,25.9-0.02c8.81,0.05,17.61,0.13,26.41,0.22
				c17.45,0.18,34.89,0.45,52.32,0.8c2.16,0.05,4.32,0.09,6.48,0.14c1.4,0.03,3.38-0.23,4.42,0.96c2.16,2.5-2.45,5.26-4.34,5.83
				c-3.46,1.05-7.3,0.87-10.87,0.98c-4.29,0.14-8.59,0.21-12.88,0.23c-17.44,0.08-34.87-0.67-52.3-1.12
				c-8.68-0.22-17.36-0.37-26.03-0.31c-2.15,0.02-4.3,0.05-6.45,0.09c-1.81,0.04-3.72,0.2-5.5-0.25
				C344.56,335.78,342.3,333.4,342.93,330.74z"/>
			<path style="fill:#B6BFFF;" d="M473.62,389.15c-2.59-1.31-5.18-2.63-7.77-3.95l-3.77-1.92c-0.67-0.34-1.33-0.67-2-1.01
				c-0.42-0.22-1.22-0.85-1.69-0.86c-0.74-0.02-1.97,2.15-2.44,2.76c-0.84,1.08-1.67,2.17-2.49,3.27c-1.62,2.15-3.21,4.32-4.78,6.51
				c4.12,0.04,8.25,0.08,12.38,0.13c1.28,0.01,1.46,1.79,0.17,1.99c-9.29,1.47-18.7,1.71-28.1,1.72
				c-16.85,0.01-33.71-0.12-50.56-0.29c-0.07,0.01-0.13,0.04-0.21,0.04c-0.09,0-0.16-0.03-0.23-0.05h-0.26
				c-17.14-0.17-34.28-0.45-51.41-0.97c-1.28-0.04-1.46-2.03-0.18-2c0.46,0.02,0.91,0.03,1.36,0.04c-0.04-0.5,0.24-0.99,0.88-0.99
				c9.46-0.04,18.93-0.06,28.4-0.07c16.69-0.01,33.38,0.03,50.07,0.13c11.99,0.07,23.98,0.18,35.97,0.3
				c-0.08-0.12-0.13-0.26-0.14-0.41c-0.05-4.42-0.01-8.83,0.09-13.25c-3.54,0.98-7.24,0.83-10.88,0.81c-4-0.01-7.99-0.02-11.98-0.04
				c-28.33-0.1-56.66-0.19-84.99-0.29c-3.04,0.14-6.08,0.29-9.12,0.48c-1.29,0.08-1.46-1.91-0.18-1.99c2.45-0.15,4.9-0.28,7.34-0.4
				c0.12-0.05,0.26-0.09,0.42-0.09c0.52,0,1.03,0.01,1.54,0.01c5.52-0.24,11.04-0.42,16.56-0.52c8.93-0.17,17.86-0.2,26.79-0.19
				c-0.04-0.05-0.08-0.11-0.12-0.16c-0.09-0.02-0.19-0.02-0.28-0.05c-2.32-0.56-2.83-3.04-3.26-5.07
				c-0.93-4.46-0.44-9.12,1.27-13.32c0.34-1.7,1.18-2.94,3.23-3c2.99-0.08,5.99,0,8.98,0c5.87-0.01,11.78-0.18,17.64-0.01
				c0.96,0.03,1.71,0.32,2.21,0.81c0.63-0.13,1.37,0.3,1.18,1.11c-1.59,6.59-0.96,13.47,1.81,19.67c0.01,0.03,0.02,0.07,0.03,0.11
				c10.6,0.03,21.21,0.06,31.81,0.09c0.02,0,0.04,0,0.06,0.01c0.29-10.31,1-20.6,2.13-30.85c0.06-0.52,0.43-0.76,0.83-0.78
				c0.13-0.07,0.27-0.13,0.45-0.14c2.65-0.15,5.29-0.3,7.94-0.45c1.86-0.1,4.1-0.57,5.52,0.95c1.35,1.46,1.71,3.87,2.28,5.7
				c0.71,2.32,1.4,4.64,2.06,6.97c2.69,9.41,4.97,18.93,6.86,28.52C475.19,388.91,474.24,389.47,473.62,389.15z"/>
			<path style="fill:#B6BFFF;" d="M345.9,298.58c0.52-0.18,0.93,0.06,1.15,0.42c1.71,0.01,3.41,0.02,5.12,0.03
				c17.14,0.08,34.28,0.12,51.42,0.12c17.14,0,34.28-0.05,51.42-0.14c2.03-0.01,4.11-0.14,6.13,0c1.42,0.1,2.85,0.65,3.45,2.04
				c0.52,1.23,0.03,2.52-1.09,3.19c-1.37,0.82-3.22,0.67-4.76,0.74c-8.54,0.41-17.08,0.71-25.62,0.92
				c-17.09,0.41-34.19,0.42-51.28,0.03c-8.51-0.2-17.01-0.49-25.51-0.89c-2.12-0.09-4.23-0.2-6.35-0.31
				c-1.51-0.08-3.68,0.2-4.96-0.78C343.16,302.54,343.72,299.33,345.9,298.58z"/>
			<path style="fill:#2D2D3D;" d="M479.23,335.01c-0.18-0.2-0.43-0.34-0.77-0.34h-11.75c0.54-0.95,0.96-1.96,0.93-3.09
				c-0.03-1.01-0.5-2.1-1.32-2.73c-0.16-0.32-0.47-0.58-0.92-0.58h-3.9c-2.85-7.22-3.29-15.15-1.3-22.65h5
				c0.8,0,1.03-0.76,0.79-1.34c0.91-2.37,0.35-5.04-1.37-6.89c-0.35-0.38-1.1-0.27-1.41,0.12c-0.04,0.06-0.06,0.12-0.09,0.18H345.79
				c-0.02-0.01-0.02-0.03-0.04-0.05c-0.47-0.36-1-0.26-1.41,0.13c-1.94,1.83-2.22,4.99-0.84,7.22c0.2,0.32,0.61,0.45,0.98,0.4
				c0.17,0.13,0.37,0.23,0.63,0.23h0.88c0,0,0,0.01,0.01,0.02c1.92,3.21,2.49,6.94,2.59,10.62c0.05,1.81-0.01,3.62-0.08,5.42
				c-0.09,2.09-0.16,4.23-0.87,6.21c-0.04,0.14-0.05,0.26-0.05,0.38h-3.32c-0.26-0.19-0.6-0.27-0.91-0.14
				c-0.14,0.06-0.26,0.16-0.37,0.27c-0.35,0.19-0.46,0.62-0.37,1.02c-0.2,0.24-0.4,0.47-0.55,0.75c-0.4,0.7-0.33,1.53-0.13,2.28
				c0.34,1.31,1.09,2.57,1.94,3.62c0.27,0.33,0.7,0.48,1.1,0.36c0.14,0.08,0.3,0.14,0.5,0.14h8.29c-0.34,0.76-0.48,1.61-0.36,2.44
				c0.18,1.24,0.86,2.41,1.9,3.13c0.36,0.25,0.85,0.29,1.21,0.04c0.07,0.01,0.14,0.04,0.22,0.04h123.43c0.23,0,0.4-0.08,0.54-0.19
				c0.25-0.07,0.46-0.25,0.58-0.5C482.36,339.21,481.4,336.3,479.23,335.01z M345.02,303.63c-0.05-0.11-0.1-0.21-0.14-0.31
				c-0.04-0.12-0.08-0.24-0.12-0.36c-0.02-0.06-0.03-0.12-0.05-0.18c0,0,0,0,0-0.01c-0.04-0.24-0.07-0.49-0.08-0.74
				c0-0.07-0.01-0.14,0-0.21v-0.11c0.01-0.1,0.02-0.2,0.03-0.3c0.04-0.25,0.1-0.49,0.16-0.73c0.03-0.06,0.05-0.13,0.07-0.19
				c0.05-0.12,0.1-0.23,0.16-0.35c0.05-0.11,0.11-0.22,0.17-0.33c0.01-0.01,0.01-0.01,0.02-0.02c0.02-0.03,0.05-0.07,0.07-0.1
				h118.56c0,0,0,0,0.01,0c0,0.01,0.03,0.05,0.04,0.08c0.02,0.04,0.04,0.07,0.04,0.08c0.11,0.23,0.2,0.46,0.28,0.7
				c0.03,0.11,0.06,0.23,0.09,0.34c0.01,0.02,0.01,0.01,0.01,0.02c0.01,0.07,0.02,0.13,0.03,0.2c0.04,0.23,0.07,0.47,0.08,0.7v0.36
				c0,0.01,0,0.01,0,0.01c0,0.01,0,0.01-0.01,0.03c0,0.06-0.01,0.12-0.01,0.17c-0.03,0.24-0.07,0.47-0.13,0.7
				c-0.01,0.07-0.04,0.14-0.05,0.21c0,0.01,0,0.01,0,0.01c-0.01,0-0.01,0-0.01,0c-0.04,0.11-0.08,0.22-0.12,0.33H345.02z
				 M348.25,305.62h109.89c-1.91,7.47-1.47,15.43,1.22,22.65H349.59c0.59-1.88,0.77-3.8,0.86-5.77c0.1-2.14,0.19-4.27,0.13-6.41
				C350.48,312.46,349.88,308.86,348.25,305.62z M345.27,334.58c-0.3-0.4-0.59-0.83-0.8-1.2c-0.11-0.2-0.27-0.56-0.38-0.83
				c-0.06-0.15-0.12-0.3-0.17-0.45c-0.02-0.07-0.05-0.13-0.07-0.2c0-0.01-0.03-0.13-0.04-0.17s-0.02-0.11-0.02-0.12
				c-0.01-0.07-0.02-0.13-0.02-0.2c0-0.04,0-0.11,0.01-0.13c0-0.03,0.01-0.06,0.01-0.09c0.01-0.01,0.04-0.09,0.06-0.13
				c0,0,0,0,0.01-0.01c0.09-0.1,0.17-0.21,0.26-0.32c0.12-0.15,0.24-0.3,0.33-0.46h120.32c0.08,0.04,0.17,0.08,0.24,0.1v-0.01
				c0.05,0.04,0.09,0.07,0.13,0.1c0.03,0.03,0.06,0.06,0.09,0.08c0.06,0.09,0.12,0.2,0.19,0.28c0,0,0,0,0.01,0.01
				c0.02,0.05,0.04,0.1,0.06,0.15c0.04,0.1,0.07,0.21,0.11,0.32l0.03,0.18c0.01,0.12,0.01,0.24,0.02,0.36
				c-0.01,0.04-0.01,0.08-0.02,0.13c-0.02,0.15-0.04,0.29-0.08,0.44c0,0.01-0.04,0.13-0.05,0.17c-0.01,0.03-0.03,0.1-0.04,0.11
				c-0.05,0.14-0.11,0.27-0.17,0.41c-0.12,0.26-0.26,0.51-0.41,0.76c-0.07,0.12-0.15,0.24-0.22,0.36c-0.02,0.03-0.06,0.09-0.07,0.11
				c-0.05,0.07-0.09,0.14-0.14,0.21c-0.01,0.01-0.01,0.02-0.01,0.04H345.27z"/>
			<path style="fill:#2D2D3D;" d="M415.083,309.568c-20.758-0.173-41.517,0.036-62.267,0.626c-1.287,0.037-1.109,2.029,0.174,1.992
				c20.75-0.59,41.51-0.799,62.267-0.626C416.544,311.571,416.361,309.578,415.083,309.568z"/>
			<path style="fill:#2D2D3D;" d="M450.528,310.247c-9.371-0.168-18.737-0.526-28.093-1.078c-1.27-0.075-1.644,1.892-0.362,1.968
				c9.534,0.563,19.079,0.932,28.629,1.103C451.988,312.263,451.804,310.27,450.528,310.247z"/>
			<path style="fill:#2D2D3D;" d="M449.829,317.995c-24.088-0.407-48.18-0.622-72.272-0.642c-6.812-0.006-13.624,0.005-20.436,0.03
				c-1.287,0.005-1.106,1.997,0.174,1.992c24.092-0.089,48.184,0.014,72.274,0.312c6.812,0.084,13.623,0.185,20.434,0.3
				C451.289,320.009,451.105,318.016,449.829,317.995z"/>
			<path style="fill:#2D2D3D;" d="M411.469,325.171c-18.857-0.254-37.717-0.177-56.571,0.232c-1.287,0.028-1.108,2.02,0.174,1.992
				c18.854-0.408,37.714-0.486,56.571-0.232C412.93,327.181,412.746,325.188,411.469,325.171z"/>
			<path style="fill:#2D2D3D;" d="M453.863,324.56c-11.213,0.145-22.426,0.29-33.639,0.435c-1.287,0.017-1.107,2.009,0.174,1.992
				l33.639-0.435C455.325,326.535,455.144,324.543,453.863,324.56z"/>
			<path style="fill:#2D2D3D;" d="M477.306,352.196c-0.081-0.536-0.544-0.848-1.065-0.848h-0.392
				c-1.282-3.673-1.311-7.727,0.048-11.396c0.445-1.2-1.361-2.063-1.808-0.855c-1.459,3.937-1.6,8.26-0.365,12.251h-7.352
				c-0.039,0-0.071,0.023-0.109,0.029c-0.415-1.738-0.838-3.475-1.246-5.215c-0.145-0.62-0.68-0.756-1.147-0.586
				c-0.001,0-0.001,0-0.002,0c-2.572,0.017-5.144,0.06-7.715,0.131c-1.238,0.034-2.476,0.075-3.714,0.121
				c-1.061,0.04-2.279-0.078-3.26,0.391c-0.449-0.027-0.897,0.2-0.975,0.778c-0.272,1.995-0.519,3.992-0.743,5.992
				c-24.658-0.666-49.321-1.133-73.986-1.395c-4.388-0.047-8.777-0.076-13.165-0.109c0.547-3.924,0.277-7.922-0.787-11.755
				c-0.344-1.239-2.218-0.537-1.875,0.698c0.999,3.6,1.197,7.362,0.646,11.041c-1.919-0.014-3.839-0.036-5.758-0.048
				c-0.682-0.004-0.94,0.553-0.852,1.079c-0.382,1.249-0.318,2.628,0.197,3.82c-2.605,0.214-5.222,0.276-7.832,0.141
				c-0.539-0.028-1.059,0.223-1.165,0.803c-0.011,0.059-0.015,0.122-0.013,0.185c-3.318,6.378-3.546,14.162-0.565,20.712
				c0.22,0.483,0.67,0.635,1.087,0.577c0.155,0.102,0.334,0.179,0.56,0.179h101.979c-0.049,5.383,0.064,10.768,0.367,16.145
				c0.005,0.083,0.026,0.16,0.054,0.238c0.092,0.356,0.336,0.58,0.641,0.653c0.347,0.13,0.757,0.084,1.075-0.271
				c3.681-4.124,7.248-8.347,10.709-12.656c4.975,3.64,10.341,6.721,16.007,9.152c0.673,0.289,1.225-0.175,1.371-0.719
				c0.139-0.222,0.198-0.501,0.113-0.815c-3.054-11.235-5.939-22.514-8.688-33.827h8.348c0.018,0.017,0.025,0.04,0.046,0.056
				c0.409,0.315,1.075,0.325,1.409-0.123c0.546-0.732,0.803-1.62,0.735-2.532C478.06,353.462,477.766,352.775,477.306,352.196z
				 M360.111,376.923h-16.157c-0.18-0.426-0.342-0.857-0.494-1.291c1.643,0.148,3.299,0.133,4.935-0.086
				c0.518-0.069,0.982-0.53,0.909-1.083c-0.069-0.517-0.528-0.984-1.083-0.909c-0.857,0.115-1.721,0.181-2.586,0.19
				c-0.208,0.002-0.415,0.002-0.623-0.002c-0.104-0.002-0.208-0.005-0.311-0.008c-0.013,0-0.119-0.005-0.168-0.008
				c-0.442-0.024-0.883-0.063-1.322-0.114c-0.115-0.013-0.232-0.002-0.346,0.019c-0.203-0.828-0.339-1.666-0.445-2.508
				c1.489,0.019,2.978-0.047,4.455-0.239c0.518-0.067,0.982-0.532,0.909-1.083c-0.069-0.519-0.528-0.981-1.083-0.909
				c-1.472,0.191-2.955,0.257-4.439,0.238c-0.037-1.098,0.016-2.196,0.14-3.287c0.008,0,0.014,0.003,0.021,0.004
				c1.762,0.048,3.524-0.004,5.28-0.156c0.521-0.045,0.98-0.548,0.909-1.083c-0.071-0.538-0.525-0.958-1.083-0.909
				c-1.601,0.139-3.207,0.184-4.813,0.156c0.386-1.86,1.011-3.678,1.888-5.401c3.785,0.144,7.565-0.022,11.317-0.567
				c0.107-0.016,0.189-0.06,0.276-0.099h4.294c-1.071,3.081-1.727,6.291-1.895,9.56
				C358.427,370.635,358.742,373.945,360.111,376.923z M377.933,372.89c0.15,1.385,0.35,2.755,0.853,4.033h-16.437
				c-1.707-3.009-1.984-6.611-1.737-10.006c0.227-3.13,0.908-6.196,1.998-9.129h16.791c-0.927,3.043-1.488,6.175-1.635,9.368
				C377.678,369.069,377.726,370.985,377.933,372.89z M380.981,376.923c-0.861-1.475-0.988-3.321-1.132-4.986
				c-0.15-1.727-0.183-3.47-0.075-5.201c0.191-3.045,0.787-6.05,1.728-8.948h31.13c-0.906,2.838-0.921,5.968-0.972,8.907
				c-0.062,3.532,0.277,7.061,1.888,10.228H380.981z M415.642,376.923c-0.002-0.166-0.032-0.337-0.131-0.509
				c-1.719-2.99-1.917-6.522-1.859-9.893c0.05-2.886,0.039-5.997,1.086-8.733h22.371c-1.565,6.297-1.449,12.873,0.355,19.135
				H415.642z M446.072,372.333c-0.518,0.016-1.035,0.033-1.553,0.021c-0.169-0.004-0.338-0.01-0.507-0.017
				c-0.014-0.001-0.018-0.001-0.028-0.001c-0.013-0.001-0.021-0.001-0.042-0.003c-0.084-0.005-0.169-0.009-0.253-0.015
				c-0.366-0.023-0.732-0.053-1.096-0.09c-0.519-0.052-1.087,0.238-1.165,0.803c-0.069,0.5,0.246,1.109,0.803,1.165
				c1.258,0.126,2.525,0.158,3.789,0.13c-0.024,0.865-0.054,1.731-0.069,2.596h-6.42c-1.916-6.198-2.044-12.873-0.368-19.135h7.835
				C446.55,362.627,446.243,367.478,446.072,372.333z M473.931,389.606c-4.994-2.281-9.743-5.061-14.164-8.326
				c-0.292-0.216-0.6-0.235-0.875-0.154c-0.38-0.264-0.905-0.302-1.279,0.166c-3.051,3.812-6.206,7.537-9.429,11.205
				c-0.693-14.865-0.062-29.763,1.91-44.515c0.38-0.21,1.119-0.107,1.52-0.124c0.571-0.023,1.142-0.045,1.714-0.065
				c1.19-0.043,2.38-0.08,3.571-0.11c2.138-0.056,4.277-0.085,6.416-0.104C466.618,361.646,470.16,375.656,473.931,389.606z"/>
			<path style="fill:#2D2D3D;" d="M452.802,355.033c-0.022-0.523-0.564-0.978-1.083-0.909c-0.558,0.074-0.933,0.523-0.909,1.083
				c0.09,2.133,0.181,4.267,0.271,6.4c0.022,0.523,0.564,0.978,1.083,0.909c0.558-0.074,0.933-0.523,0.909-1.083
				C452.983,359.3,452.893,357.166,452.802,355.033z"/>
			<path style="fill:#2D2D3D;" d="M452.775,366.295c-0.004-0.541-0.575-0.953-1.083-0.909c-0.574,0.05-0.914,0.541-0.909,1.083
				c0.021,2.598,0.102,5.196,0.24,7.791c0.029,0.54,0.558,0.955,1.083,0.909c0.555-0.049,0.938-0.542,0.909-1.083
				C452.876,371.491,452.796,368.893,452.775,366.295z"/>
			<path style="fill:#2D2D3D;" d="M456.454,363.767c-0.007-0.317-0.009-0.634-0.005-0.95c0.002-0.158,0.006-0.317,0.01-0.475
				c0.003-0.087,0.006-0.174,0.01-0.26c0.002-0.035,0.004-0.07,0.005-0.105c0.015-0.28,0.002-0.52-0.168-0.759
				c-0.139-0.196-0.393-0.372-0.635-0.406c-0.48-0.066-1.134,0.244-1.165,0.803c-0.078,1.436-0.065,2.87,0.075,4.302
				c0.051,0.52,0.544,0.981,1.083,0.909c0.533-0.071,0.964-0.526,0.909-1.083C456.511,365.086,456.47,364.427,456.454,363.767z"/>
			<path style="fill:#2D2D3D;" d="M390.198,344.319c-8.614,0.449-17.247,0.449-25.86-0.025c-1.27-0.07-1.644,1.897-0.362,1.968
				c8.793,0.484,17.601,0.508,26.396,0.05C391.659,346.244,391.483,344.252,390.198,344.319z"/>
			<path style="fill:#2D2D3D;" d="M438.85,343.496c-12.924,0.285-25.852,0.41-38.779,0.375c-1.287-0.004-1.104,1.989,0.174,1.992
				c12.927,0.036,25.855-0.089,38.779-0.375C440.311,345.46,440.132,343.467,438.85,343.496z"/>
			<path style="fill:#2D2D3D;" d="M421.339,348.923c-15.058-0.291-30.115-0.581-45.173-0.872c-1.285-0.025-1.101,1.968,0.174,1.992
				l45.173,0.872C422.798,350.94,422.614,348.947,421.339,348.923z"/>
			<path style="fill:#2D2D3D;" d="M393.957,359.07c-3.521,0.095-7.042,0.19-10.563,0.286c-1.287,0.035-1.109,2.027,0.174,1.992
				c3.521-0.095,7.042-0.19,10.563-0.286C395.419,361.027,395.24,359.035,393.957,359.07z"/>
			<path style="fill:#2D2D3D;" d="M404.636,359.347c-2.464-0.462-4.981-0.638-7.485-0.536c-0.54,0.022-0.955,0.563-0.909,1.083
				c0.049,0.56,0.542,0.931,1.083,0.909c2.333-0.094,4.655,0.081,6.95,0.512c0.531,0.099,1.068-0.273,1.165-0.803
				C405.537,359.976,405.169,359.447,404.636,359.347z"/>
			<path style="fill:#2D2D3D;" d="M399.237,362.671c-2.409,0.006-4.818,0.011-7.227,0.017c-0.541,0.001-0.953,0.578-0.909,1.083
				c0.05,0.577,0.541,0.91,1.083,0.909c2.409-0.006,4.818-0.011,7.227-0.017c0.541-0.001,0.953-0.578,0.909-1.083
				C400.27,363.003,399.779,362.67,399.237,362.671z"/>
			<path style="fill:#2D2D3D;" d="M446.218,392.351H332.529c0.986-3.028,1.178-6.737-0.434-9.544h114.297
				c1.287,0,1.105-1.992-0.174-1.992H329.534c-0.006-0.008-0.012-0.015-0.018-0.023c-0.021-0.029-0.037-0.06-0.057-0.09
				c-0.045-0.097-0.078-0.197-0.108-0.299c-0.017-0.109-0.025-0.219-0.026-0.329c0.015-0.135,0.038-0.269,0.074-0.4
				c0.025-0.063,0.047-0.127,0.078-0.187c0.006-0.012,0.018-0.033,0.031-0.055c0.018-0.025,0.036-0.05,0.045-0.062
				c0.031-0.039,0.063-0.076,0.096-0.112c0.092-0.072,0.186-0.139,0.29-0.196c0.003-0.002,0.006-0.006,0.01-0.008h13.586
				c1.287,0,1.105-1.992-0.174-1.992h-14.595c-0.715,0-0.962,0.613-0.834,1.159c-0.308,0.43-0.52,0.935-0.583,1.438
				c-0.092,0.735,0.047,1.45,0.41,2.061c0.005,0.527,0.363,1.087,1.043,1.087h0.875c0.018,0.02,0.027,0.045,0.046,0.065
				c1.007,1.047,1.39,2.566,1.513,3.972c0.153,1.75-0.08,3.53-0.683,5.18c-0.039,0.107-0.055,0.218-0.065,0.328h-1.304
				c-1.287,0-1.105,1.992,0.174,1.992h117.035C447.679,394.344,447.497,392.351,446.218,392.351z"/>
			<path style="fill:#2D2D3D;" d="M461.368,392.629h-0.712c-0.015-0.067-0.012-0.129-0.042-0.199
				c-1.365-3.125-1.553-6.586-0.563-9.847c0.157-0.517-0.315-1.075-0.803-1.165c-0.582-0.106-1.007,0.284-1.165,0.803
				c-1.03,3.393-0.842,7.115,0.464,10.408h-9.411c-1.287,0-1.105,1.992,0.174,1.992h12.232
				C462.83,394.622,462.648,392.629,461.368,392.629z"/>
			<g>
				<path style="fill:#2D2D3D;" d="M330.039,396.355c0.008,0.002-0.016-0.024-0.085-0.08c0.002,0.003,0.004,0.006,0.007,0.009
					C329.988,396.307,330.014,396.33,330.039,396.355z"/>
				<path style="fill:#2D2D3D;" d="M462.913,396.971c0.56-1.316,0.396-2.927-0.514-4.053c-0.165-0.204-0.372-0.357-0.635-0.406
					c-0.244-0.045-0.559,0.013-0.759,0.168c-0.406,0.315-0.59,0.959-0.238,1.394c0.085,0.105,0.154,0.221,0.224,0.336
					c0.084,0.175,0.148,0.356,0.199,0.543c0.029,0.171,0.044,0.343,0.045,0.516c-0.018,0.192-0.046,0.382-0.1,0.568
					c-0.01,0.026-0.019,0.053-0.03,0.079c-0.054,0.128-0.078,0.266-0.08,0.405H330.295c-0.036,0-0.058,0.016-0.092,0.019
					c-0.036-0.042-0.057-0.091-0.101-0.128c-0.022-0.018-0.042-0.038-0.063-0.057c-0.009-0.002-0.042-0.027-0.072-0.064
					c-0.002-0.003-0.004-0.005-0.006-0.008c-0.013-0.012-0.025-0.025-0.039-0.036c0.016,0.013,0.02,0.017,0.032,0.027
					c-0.016-0.02-0.032-0.04-0.047-0.06c-0.047-0.064-0.086-0.133-0.131-0.198c-0.008-0.017-0.016-0.035-0.024-0.052
					c-0.032-0.074-0.061-0.15-0.086-0.226c-0.007-0.022-0.025-0.089-0.038-0.139c0,0,0,0,0,0c-0.008-0.048-0.014-0.096-0.02-0.145
					c-0.009-0.081-0.014-0.162-0.016-0.244c0-0.019,0-0.037,0-0.056c0.008-0.07,0.014-0.141,0.026-0.211
					c0.014-0.08,0.031-0.159,0.051-0.238c0-0.002,0.002-0.007,0.003-0.01c0.002-0.007,0.005-0.015,0.007-0.02
					c0.029-0.075,0.062-0.149,0.098-0.221c0.016-0.031,0.033-0.061,0.05-0.091c0.039-0.052,0.076-0.105,0.119-0.155
					c0.055-0.064,0.291-0.279,0.035-0.051c0.202-0.179,0.355-0.36,0.406-0.635c0.045-0.244-0.013-0.559-0.168-0.759
					c-0.302-0.389-0.976-0.61-1.394-0.238c-0.397,0.352-0.732,0.753-0.935,1.25c-0.207,0.505-0.294,1.015-0.29,1.559
					c0.006,0.986,0.46,1.976,1.216,2.61c0.235,0.197,0.561,0.252,0.861,0.19c0.178,0.22,0.438,0.379,0.792,0.379h131.768
					c0.891,0,1.064-0.947,0.67-1.534C462.909,396.976,462.912,396.974,462.913,396.971z"/>
			</g>
			<path style="fill:#2D2D3D;" d="M371.85,385.72c-11.999-0.328-23.997-0.655-35.996-0.983c-1.284-0.035-1.099,1.958,0.174,1.992
				c11.999,0.328,23.997,0.655,35.996,0.983C373.309,387.748,373.124,385.755,371.85,385.72z"/>
			<path style="fill:#2D2D3D;" d="M414.797,384.478c-12.571,1.09-25.196,1.435-37.807,1.032c-1.284-0.041-1.098,1.952,0.174,1.992
				c12.612,0.403,25.236,0.058,37.807-1.032C416.253,386.359,416.081,384.367,414.797,384.478z"/>
			<path style="fill:#2D2D3D;" d="M443.299,388.829c-12.185-0.043-24.37-0.087-36.556-0.13c-1.287-0.005-1.104,1.988,0.174,1.992
				c12.185,0.043,24.37,0.087,36.555,0.13C444.76,390.826,444.577,388.834,443.299,388.829z"/>
			<path style="fill:#2D2D3D;" d="M440.101,384.908c-3.15,0.038-6.3,0.077-9.45,0.115c-0.541,0.007-0.954,0.574-0.909,1.083
				c0.05,0.573,0.541,0.916,1.083,0.909c3.15-0.038,6.3-0.077,9.45-0.115c0.541-0.007,0.954-0.574,0.909-1.083
				C441.134,385.244,440.643,384.901,440.101,384.908z"/>
		</g>
		<path style="fill:#2D2D3D;" d="M321.97,293.095c-2.269-2.859-6.22-3.635-9.43-2.143c-0.272-0.118-0.591-0.123-0.906,0.109
			c-2.779,2.041-4.77,5.399-4.452,8.931c0.288,3.199,2.615,6.193,5.781,6.959c3.61,0.873,7.387-1.492,9.289-4.445
			C324.126,299.599,324.163,295.857,321.97,293.095z M320.918,300.85c-1.248,2.394-4.063,4.525-6.873,4.255
			c-2.422-0.233-4.332-2.363-4.787-4.681c-0.523-2.661,0.794-5.298,2.738-7.074c0.196,0.013,0.402-0.018,0.608-0.158
			c2.225-1.501,5.286-1.325,7.251,0.532C321.831,295.592,322.147,298.492,320.918,300.85z"/>
		<path style="fill:#2D2D3D;" d="M326.268,314.978c-0.686-0.705-1.673-1.158-2.645-1.282c-1.3-0.166-2.602,0.168-3.674,0.86
			c-0.015,0.004-0.029,0.001-0.044,0.006c-2.084,0.687-3.085,3.166-2.292,5.159c0.849,2.134,3.135,3.241,5.356,2.978
			c1.18-0.14,2.374-0.592,3.229-1.436c0.766-0.755,1.141-1.85,1.2-2.906C327.469,317.103,327.163,315.896,326.268,314.978z"/>
		<g>
			<path style="fill:#2D2D3D;" d="M330.87,306.814c-0.036-0.023-0.073-0.039-0.108-0.066c0.02,0.023,0.041,0.046,0.052,0.056
				c0.035,0.033,0.073,0.063,0.11,0.093C330.903,306.871,330.89,306.84,330.87,306.814z"/>
			<path style="fill:#2D2D3D;" d="M333.207,304.824c-0.003-0.004-0.006-0.008-0.009-0.012c0.002,0.01,0.007,0.023,0.012,0.039
				c0.001-0.002,0.003-0.003,0.004-0.005C333.212,304.839,333.209,304.832,333.207,304.824z"/>
			<path style="fill:#2D2D3D;" d="M336.94,303.159c-0.408-0.934-1.172-1.643-2.103-2.046c-2.078-0.898-4.909-0.609-6.038,1.582
				c-0.123,0.238-0.122,0.512-0.034,0.755c-0.289,0.753-0.423,1.572-0.41,2.255c0.042,2.183,1.908,3.659,4.005,3.629
				c1.911-0.028,3.916-1.347,4.591-3.154C337.31,305.223,337.355,304.11,336.94,303.159z M333.198,304.812
				c0.003,0.004,0.006,0.008,0.009,0.012c0.002,0.008,0.005,0.015,0.008,0.023c-0.001,0.002-0.003,0.003-0.004,0.005
				C333.205,304.835,333.2,304.822,333.198,304.812z M330.762,306.747c0.035,0.027,0.072,0.043,0.108,0.066
				c0.02,0.026,0.033,0.057,0.054,0.083c-0.037-0.03-0.075-0.06-0.11-0.093C330.804,306.793,330.782,306.77,330.762,306.747z"/>
		</g>
		<g>
			<polygon style="fill:#2D2D3D;" points="332.022,293.913 332.023,293.92 332.024,293.921 332.025,293.918 			"/>
			<polygon style="fill:#2D2D3D;" points="331.996,293.897 331.996,293.899 331.997,293.899 331.997,293.897 			"/>
			<polygon style="fill:#2D2D3D;" points="331.988,293.893 331.988,293.894 331.989,293.887 331.984,293.89 331.984,293.892 
				331.983,293.892 331.984,293.893 331.984,293.893 331.984,293.893 331.986,293.895 331.987,293.896 331.988,293.894 			"/>
			<path style="fill:#2D2D3D;" d="M331.998,293.896c0-0.001,0.001-0.002,0.002-0.003c0-0.001,0-0.002,0-0.003
				c-0.002-0.002-0.005-0.005-0.006-0.006c0,0,0,0,0,0c0.001,0.004,0.002,0.007,0.003,0.011
				C331.997,293.895,331.997,293.895,331.998,293.896z"/>
			<polygon style="fill:#2D2D3D;" points="331.988,293.894 331.988,293.894 331.996,293.897 331.996,293.895 			"/>
			<path style="fill:#2D2D3D;" d="M332.703,290.964c-1.341-0.245-2.707,0.461-3.285,1.695c-0.059,0.125-0.103,0.263-0.145,0.4
				c0,0-0.001,0.001-0.001,0.001c-0.341,0.571-0.382,1.282-0.164,1.904c0.225,0.641,0.732,1.165,1.331,1.472
				c0.653,0.335,1.402,0.343,2.1,0.175c1.221-0.293,2.356-1.369,2.5-2.655C335.202,292.497,334.121,291.223,332.703,290.964z"/>
			<polygon style="fill:#2D2D3D;" points="332.004,293.894 332.004,293.895 332.005,293.897 332.008,293.898 			"/>
			<polygon style="fill:#2D2D3D;" points="332,293.899 331.999,293.9 332.001,293.901 			"/>
			<polygon style="fill:#2D2D3D;" points="331.998,293.881 331.997,293.88 331.996,293.881 331.999,293.887 			"/>
			<polygon style="fill:#2D2D3D;" points="332.012,293.905 332.011,293.903 332.007,293.901 332.008,293.903 			"/>
			<polygon style="fill:#2D2D3D;" points="331.985,293.877 331.985,293.88 331.986,293.877 			"/>
			<path style="fill:#2D2D3D;" d="M331.996,293.852c0-0.001,0.001-0.001,0.001-0.002c0-0.009,0-0.022,0-0.026
				c0-0.005-0.001-0.004-0.002-0.008c-0.003,0.007-0.005,0.011-0.008,0.02C331.992,293.844,331.992,293.844,331.996,293.852z"/>
			<polygon style="fill:#2D2D3D;" points="331.991,293.872 331.991,293.872 331.991,293.872 			"/>
			<path style="fill:#2D2D3D;" d="M332.022,293.888C332.022,293.888,332.021,293.888,332.022,293.888
				c-0.001,0.003-0.001,0.006-0.001,0.008c0.001,0.002,0.002,0.004,0.003,0.006C332.033,293.9,332.032,293.894,332.022,293.888z"/>
			<polygon style="fill:#2D2D3D;" points="331.965,293.863 331.961,293.86 331.963,293.863 			"/>
			<polygon style="fill:#2D2D3D;" points="331.978,293.875 331.973,293.877 331.977,293.883 331.982,293.876 			"/>
			<path style="fill:#2D2D3D;" d="M332.003,293.833c0-0.001,0.001-0.005,0.002-0.006c0.001-0.005,0-0.005,0.001-0.009
				C332.003,293.82,332.002,293.823,332.003,293.833z"/>
			<polygon style="fill:#2D2D3D;" points="331.984,293.83 331.987,293.839 331.988,293.836 			"/>
			<path style="fill:#2D2D3D;" d="M331.987,293.851c-0.001-0.002-0.001-0.002-0.002-0.004c0,0.003,0.002,0.006,0.002,0.009
				c0,0.001,0,0.004,0,0.005c0.001,0,0.001-0.001,0.001-0.001c0,0.001,0,0.001,0,0.002c0.001,0,0.002-0.001,0.003-0.001
				c0-0.001,0.001-0.001,0.001-0.002c0-0.001-0.001-0.001-0.001-0.002c0.001-0.001,0.001-0.001,0.002-0.002
				c-0.002-0.006-0.005-0.013-0.006-0.016C331.987,293.842,331.987,293.847,331.987,293.851z"/>
		</g>
		<path style="fill:#2D2D3D;" d="M338.898,314.537c-1.156-1.102-3.101-1.002-4.332-0.087c-0.227,0.169-0.43,0.377-0.615,0.6
			c-0.209,0.18-0.402,0.375-0.548,0.59c-0.496,0.73-0.666,1.616-0.373,2.464c0.297,0.859,1.04,1.378,1.887,1.607
			c1.461,0.394,3.278-0.004,4.295-1.165C340.264,317.349,340.007,315.594,338.898,314.537z"/>
	</g>
	<g>
		<path style="fill:#2D2D3D;" d="M64.59,235.9c1.78,1.01,3.76,1.63,5.8,1.76c2.25,0.14,2.99-1.26,2.72-3.34
			c-0.56-4.28-2.86-8.05-5.68-11.23c-3.55-4.01-7.98-7.11-11.76-10.89c0.64-1.05,1.3-2.09,1.99-3.1
			c3.69-5.41,8.25-10.24,13.81-13.75c1.09-0.69,0.05-2.4-1.04-1.71c-6.65,4.21-11.86,10.14-16,16.77c-0.01,0-0.01-0.01-0.01-0.01
			c-5.42,0.51-10.68,1.89-15.63,4.15c-4.68,2.13-9.81,5.06-12.78,9.39c-1.18,1.71-2.06,4-1.27,6.05c0.85,2.25,3.28,2.6,5.37,2.09
			c4.64-1.13,8.83-4.16,12.37-7.24c2.94-2.54,5.63-5.35,8.38-8.09c-0.9,1.79-1.75,3.61-2.54,5.44c-0.94,2.17-1.79,4.37-2.57,6.6
			H45.7c-4.46,0.46-8.76,1.67-12.79,3.62c-3.84,1.86-7.77,4.44-10.46,7.81c-1.1,1.39-2.62,3.45-2.3,5.34
			c0.26,1.51,1.65,2.34,3.07,2.57c3.92,0.63,7.96-2.23,10.79-4.59c3.64-3.04,6.93-6.53,10.19-9.99c-1.07,3.61-1.95,7.29-2.62,11
			c-0.04,0.01-0.08,0.01-0.12,0.03c-9.41,4.69-19.06,11.7-21.52,22.57c-0.42,1.84-0.6,4.11,0.71,5.66c1.56,1.83,4.07,1.37,5.89,0.21
			c4.04-2.59,6.93-7.25,9.2-11.36c1.69-3.07,3.17-6.26,4.75-9.4c-0.33,3.25-0.51,6.52-0.53,9.79c0,0.47,0.01,0.94,0.02,1.41
			c-6.99,4.75-12.69,12.55-13.85,21.06c-0.28,2.02-0.37,4.36,0.59,6.22c0.88,1.71,2.7,2.35,4.46,1.58c3.76-1.64,5.86-6.5,7.17-10.08
			c0.98-2.68,1.8-5.42,2.5-8.2c0.57,3.34,1.48,6.61,2.89,9.74c0.03,0.06,0.08,0.09,0.11,0.14c-0.19,4.49,0.45,9.01,1.95,13.25
			c1.43,4.04,3.65,8.41,7.8,10.22c3.39,1.47,9.07,0.91,9.72-3.59c0.63-4.38-3.65-8.18-6.5-10.85c-3.81-3.57-7.99-6.81-11.11-11.03
			c-0.02-0.02-0.04-0.05-0.06-0.07c-0.03-0.04-0.06-0.07-0.09-0.11c-0.18-0.26-0.43-0.39-0.69-0.42c-1.57-3.97-2.33-8.19-2.67-12.44
			c3.39,6.6,9.16,11.85,16.11,14.56c1.91,0.74,4.18,1.59,6.25,1.58c2.33-0.01,3.26-1.9,2.91-4.01c-0.73-4.5-4.22-8-8.04-10.18
			c-2.48-1.42-5.18-2.4-7.85-3.39c-3.2-1.18-6.4-2.35-9.61-3.53v-0.06c-0.06-4.7,0.21-9.4,0.82-14.06
			c2.58,8.55,10.11,14.64,18.43,17.79c1.96,0.74,4.54,1.95,6.68,1.42c2.29-0.58,2.56-2.92,1.71-4.81
			c-2.02-4.45-5.79-8.46-9.64-11.39c-2.24-1.72-4.67-3.17-7.26-4.31c-3.01-1.31-6.16-2.28-9.17-3.59c0.04-0.23,0.08-0.45,0.12-0.68
			c0.57-3.02,1.27-6.04,2.11-9.04c2.91,6.59,8.53,11.95,15.41,14.23c2.16,0.71,5.1,1.34,7.29,0.4c1.95-0.85,2.34-2.97,1.84-4.86
			c-1.08-4.1-5.11-7.02-8.71-8.77c-4.66-2.26-9.85-3.24-14.35-5.81c1.61-4.78,3.58-9.43,5.94-13.86
			C54.11,224.17,57.8,232.09,64.59,235.9z M70.06,230.69c0.34,0.8,1.83,4.62,0.83,4.99c-0.65,0.24-2.01-0.22-2.65-0.4
			c-0.87-0.24-1.71-0.6-2.5-1.03c-3.32-1.8-5.81-4.85-7.55-8.14c-1.91-3.65-2.97-7.67-3.19-11.76
			C60.36,219.46,67.12,223.67,70.06,230.69z M35.63,239.37c-2.66,2.56-5.55,5.22-9.13,6.38c-1.12,0.37-3.12,0.94-4.11-0.06
			c-1.1-1.09,1.3-3.88,2.01-4.69c2.46-2.78,5.7-4.94,8.99-6.6c3.27-1.66,6.8-2.78,10.41-3.35
			C41.12,233.86,38.43,236.68,35.63,239.37z M37.79,277.53c-1.09,3.64-2.28,7.5-4.69,10.52c-0.85,1.07-3.23,3.89-4.51,1.95
			c-1.03-1.59-0.7-4.14-0.38-5.88c0.67-3.66,2.25-7.17,4.27-10.27c2.01-3.1,4.59-5.8,7.55-7.99c0.03,0.7,0.06,1.39,0.1,2.07
			C39.51,271.17,38.73,274.37,37.79,277.53z M28.88,268.18c-1.3,1.47-3.18,3.74-5.29,3.88c-2.53,0.16-2-3.29-1.62-4.8
			c1.11-4.49,3.7-8.49,6.93-11.74c3.49-3.53,7.72-6.18,12.1-8.46C37.01,254.11,34.33,262.06,28.88,268.18z M51.9,291.2
			c2.87,2.57,6.21,5.14,8.28,8.43c1.02,1.62,1.95,3.99,0.26,5.49c-1.46,1.3-3.67,1.28-5.42,0.69c-3.88-1.31-5.94-5.41-7.23-9.01
			c-1.34-3.73-1.98-7.64-1.97-11.58C47.69,287.36,49.77,289.3,51.9,291.2z M54.92,270.86c3.71,1.56,7.39,3.71,9.43,7.31
			c0.48,0.83,0.85,1.73,1.06,2.67c0.11,0.47,0.28,1.08,0.11,1.54c-0.26,0.71-0.93,0.68-1.61,0.58c-1.81-0.26-3.63-0.86-5.32-1.55
			c-3.4-1.39-6.51-3.45-9.14-6.01c-2.62-2.54-4.73-5.57-6.19-8.91C47.17,267.89,51.11,269.25,54.92,270.86z M55.36,252.08
			c3.75,2.21,7.09,5.16,9.71,8.64c0.59,0.79,1.15,1.6,1.67,2.44c0.53,0.84,1.73,2.35,1.28,3.37c-0.7,1.56-4.63-0.28-5.7-0.66
			c-4.34-1.58-8.49-3.91-11.8-7.17c-3.13-3.09-5.45-7.04-6.31-11.36C47.97,248.84,51.85,250.02,55.36,252.08z M66.49,242.18
			c1.02,1.2,2.51,3.3,1.94,4.98c-0.7,2.08-5.07,0.85-6.53,0.39c-3.62-1.15-6.91-3.34-9.55-6.06c-2.49-2.58-4.36-5.68-5.51-9.06
			C53.3,235.85,61.55,236.43,66.49,242.18z M34.2,228.27c-1.67,0.89-4.44,2.48-6.41,2c-2.45-0.59-1.02-3.87-0.15-5.18
			c2.55-3.84,7.17-6.42,11.23-8.38c4.19-2.03,8.7-3.37,13.31-4.03C46.42,218.11,41.27,224.5,34.2,228.27z"/>
		<path style="fill:#2D2D3D;" d="M60.44,305.12c-1.46,1.3-3.67,1.28-5.42,0.69c-3.88-1.31-5.94-5.41-7.23-9.01
			c-1.34-3.73-1.98-7.64-1.97-11.58c1.87,2.14,3.95,4.08,6.08,5.98c2.87,2.57,6.21,5.14,8.28,8.43
			C61.2,301.25,62.13,303.62,60.44,305.12z"/>
		<path style="fill:#2D2D3D;" d="M65.52,282.38c-0.26,0.71-0.93,0.68-1.61,0.58c-1.81-0.26-3.63-0.86-5.32-1.55
			c-3.4-1.39-6.51-3.45-9.14-6.01c-2.62-2.54-4.73-5.57-6.19-8.91c3.91,1.4,7.85,2.76,11.66,4.37c3.71,1.56,7.39,3.71,9.43,7.31
			c0.48,0.83,0.85,1.73,1.06,2.67C65.52,281.31,65.69,281.92,65.52,282.38z"/>
		<path style="fill:#2D2D3D;" d="M68.02,266.53c-0.7,1.56-4.63-0.28-5.7-0.66c-4.34-1.58-8.49-3.91-11.8-7.17
			c-3.13-3.09-5.45-7.04-6.31-11.36c3.76,1.5,7.64,2.68,11.15,4.74c3.75,2.21,7.09,5.16,9.71,8.64c0.59,0.79,1.15,1.6,1.67,2.44
			C67.27,264,68.47,265.51,68.02,266.53z"/>
		<path style="fill:#2D2D3D;" d="M68.43,247.16c-0.7,2.08-5.07,0.85-6.53,0.39c-3.62-1.15-6.91-3.34-9.55-6.06
			c-2.49-2.58-4.36-5.68-5.51-9.06c6.46,3.42,14.71,4,19.65,9.75C67.51,243.38,69,245.48,68.43,247.16z"/>
		<path style="fill:#2D2D3D;" d="M52.18,212.68c-5.76,5.43-10.91,11.82-17.98,15.59c-1.67,0.89-4.44,2.48-6.41,2
			c-2.45-0.59-1.02-3.87-0.15-5.18c2.55-3.84,7.17-6.42,11.23-8.38C43.06,214.68,47.57,213.34,52.18,212.68z"/>
		<path style="fill:#2D2D3D;" d="M35.769,299.437c-1.328-0.82-3.062-1.055-4.597-0.926c-1.492,0.125-3.06,0.713-3.903,2.019
			c-0.014,0.022-0.019,0.047-0.032,0.069c-1.794,1.805-2.503,4.787-1.646,7.144c0.906,2.493,3.575,3.969,6.156,3.867
			c2.672-0.106,5.004-2.097,5.963-4.524C38.749,304.448,38.35,301.03,35.769,299.437z M36.021,305.89
			c-0.524,1.705-1.936,3.275-3.728,3.647c-1.704,0.354-3.66-0.412-4.564-1.922c-1.227-2.05-0.201-5.124,1.791-6.289
			c0.17-0.099,0.268-0.264,0.334-0.444c1.241-0.637,2.982-0.505,4.201-0.061C36.136,301.578,36.618,303.948,36.021,305.89z"/>
		<path style="fill:#2D2D3D;" d="M36.072,321.372c-0.107-1.226-0.737-2.436-1.702-3.205c-1.036-0.827-2.397-1.116-3.676-0.766
			c-0.735,0.201-1.37,0.678-1.853,1.273c-0.039,0.028-0.088,0.046-0.124,0.077c-0.553,0.476-0.852,1.135-1.057,1.821
			c-0.36,1.206-0.193,2.553,0.495,3.61c0.677,1.04,1.806,1.661,3.036,1.709c1.171,0.046,2.486-0.417,3.398-1.152
			C35.621,323.909,36.189,322.707,36.072,321.372z"/>
		<path style="fill:#2D2D3D;" d="M46.401,311.797c-0.302-0.663-0.817-1.177-1.475-1.491c-0.592-0.282-1.274-0.399-1.927-0.356
			c-0.688,0.045-1.283,0.371-1.683,0.903c-0.75,0.634-1.199,1.66-1.056,2.623c0.202,1.35,1.338,2.536,2.73,2.654
			c1.426,0.12,2.914-0.696,3.412-2.081C46.66,313.332,46.724,312.508,46.401,311.797z"/>
		<path style="fill:#2D2D3D;" d="M41.038,185.529c-3.862-2.631-8.81-1.922-11.912,1.218c-0.021,0.018-0.044,0.031-0.065,0.052
			c-2.954,2.862-4.008,7.526-2.479,11.365c1.53,3.841,5.443,6.507,9.564,6.589c4.603,0.092,8.505-3.12,9.554-7.552
			C46.724,192.875,44.682,188.012,41.038,185.529z M43.884,196.041c-0.509,3.582-3.331,6.422-6.98,6.697
			c-3.27,0.246-6.584-1.632-8.111-4.531c-1.455-2.761-1.09-6.105,0.579-8.639c0.068-0.064,0.131-0.135,0.186-0.223
			c0.098-0.16,0.207-0.311,0.316-0.461c0.224-0.279,0.461-0.548,0.719-0.799c0.065-0.063,0.115-0.129,0.157-0.195
			c2.224-2.096,5.644-2.647,8.445-1.154C42.418,188.453,44.396,192.438,43.884,196.041z"/>
		<path style="fill:#2D2D3D;" d="M42.341,173.034c-1.668-0.836-3.616-0.542-5.093,0.485c-1.847,0.63-2.695,2.83-1.985,4.671
			c0.799,2.071,2.956,3.278,5.116,3.259c2.124-0.018,4.03-1.397,4.46-3.512C45.249,175.917,44.152,173.942,42.341,173.034z
			 M42.822,177.787c-0.057,0.207-0.033,0.103-0.019,0.062c-0.03,0.085-0.066,0.167-0.104,0.249
			c-0.085,0.183-0.162,0.307-0.222,0.383c-0.346,0.439-0.879,0.762-1.433,0.889c-1.243,0.287-2.689-0.14-3.484-1.157
			c-0.444-0.568-0.684-1.21-0.52-1.875c0.016-0.064,0.044-0.133,0.08-0.211c0.197-0.037,0.392-0.125,0.557-0.326
			c0.147-0.18,0.313-0.337,0.486-0.482c0.274-0.056,0.502-0.216,0.651-0.439c0.67-0.341,1.434-0.448,2.19-0.238
			c0.171,0.048,0.485,0.184,0.725,0.332c0.105,0.064,0.512,0.409,0.584,0.494c0.431,0.509,0.595,0.957,0.614,1.564
			C42.933,177.218,42.904,177.49,42.822,177.787z"/>
		<path style="fill:#2D2D3D;" d="M55.453,168.721c-0.275-0.72-0.802-1.276-1.469-1.649c-1.314-0.735-2.917-0.396-3.953,0.639
			c-0.223,0.222-0.405,0.479-0.557,0.753c-0.207,0.19-0.389,0.403-0.523,0.612c-0.467,0.727-0.578,1.586-0.37,2.418
			c0.396,1.581,2.029,2.462,3.586,2.309c1.605-0.157,2.899-1.278,3.357-2.808C55.743,170.266,55.725,169.436,55.453,168.721z"/>
		<path style="fill:#2D2D3D;" d="M60.208,182.805c-1.424-1.985-3.883-2.941-6.162-2.485c-3.308,0.063-5.452,3.864-4.802,6.928
			c0.357,1.684,1.538,3.052,3.117,3.728c1.691,0.724,3.628,0.625,5.333-0.005c1.617-0.597,2.966-1.734,3.451-3.43
			C61.602,185.942,61.164,184.136,60.208,182.805z"/>
		<path style="fill:#2D2D3D;" d="M62.797,174.473c-0.569-0.522-1.522-0.771-2.237-0.413c-0.105,0.052-0.178,0.132-0.269,0.197
			c-0.361,0.115-0.677,0.341-0.943,0.604c-0.505,0.5-0.772,1.292-0.635,1.993c0.156,0.8,0.664,1.539,1.435,1.862
			c0.768,0.322,1.59,0.222,2.3-0.19c0.636-0.369,1.092-1.088,1.161-1.819C63.687,175.871,63.424,175.049,62.797,174.473z"/>
	</g>
</g>
</svg>
